<mxfile host="app.diagrams.net" agent="Mozilla/5.0 (Windows NT 10.0; Win64; x64) AppleWebKit/537.36 (KHTML, like Gecko) Chrome/129.0.0.0 Safari/537.36" version="24.7.17">
  <diagram name="Page-1" id="ruVPuNruPrkZmfY_v7dI">
    <mxGraphModel dx="2150" dy="1697" grid="1" gridSize="10" guides="1" tooltips="1" connect="1" arrows="1" fold="1" page="1" pageScale="1" pageWidth="1169" pageHeight="827" math="0" shadow="0">
      <root>
        <mxCell id="0" />
        <mxCell id="1" parent="0" />
        <object placeholders="1" c4Name="Database" c4Type="Conteiner" c4Technology="MySQL" c4Description="Armazena informações de agendamentos, usuários, perfis e dados de leads do CRM." label="&lt;font style=&quot;font-size: 16px&quot;&gt;&lt;b&gt;%c4Name%&lt;/b&gt;&lt;/font&gt;&lt;div&gt;[%c4Type%:&amp;nbsp;%c4Technology%]&lt;/div&gt;&lt;br&gt;&lt;div&gt;&lt;font style=&quot;font-size: 11px&quot;&gt;&lt;font color=&quot;#E6E6E6&quot;&gt;%c4Description%&lt;/font&gt;&lt;/div&gt;" id="XJv594BOsLoFYUyWrOWW-16">
          <mxCell style="shape=cylinder3;size=15;whiteSpace=wrap;html=1;boundedLbl=1;rounded=0;labelBackgroundColor=none;fillColor=#23A2D9;fontSize=12;fontColor=#ffffff;align=center;strokeColor=#0E7DAD;metaEdit=1;points=[[0.5,0,0],[1,0.25,0],[1,0.5,0],[1,0.75,0],[0.5,1,0],[0,0.75,0],[0,0.5,0],[0,0.25,0]];resizable=0;" parent="1" vertex="1">
            <mxGeometry x="430" y="980" width="240" height="120" as="geometry" />
          </mxCell>
        </object>
        <object placeholders="1" c4Name="Client-side Web Application" c4Type="Conteiner" c4Technology="HTML/CSS/JS" c4Description="Interface para profissionais, com funcionalidades adicionais como visualização de agendamentos completos, gestão de horários, e acesso aos perfis dos clientes para notas ou observações." label="&lt;font style=&quot;font-size: 16px&quot;&gt;&lt;b&gt;%c4Name%&lt;/b&gt;&lt;/font&gt;&lt;div&gt;[%c4Type%:&amp;nbsp;%c4Technology%]&lt;/div&gt;&lt;br&gt;&lt;div&gt;&lt;font style=&quot;font-size: 11px&quot;&gt;&lt;font color=&quot;#E6E6E6&quot;&gt;%c4Description%&lt;/font&gt;&lt;/div&gt;" id="XJv594BOsLoFYUyWrOWW-20">
          <mxCell style="shape=mxgraph.c4.webBrowserContainer2;whiteSpace=wrap;html=1;boundedLbl=1;rounded=0;labelBackgroundColor=none;strokeColor=#118ACD;fillColor=#23A2D9;strokeColor=#118ACD;strokeColor2=#0E7DAD;fontSize=12;fontColor=#ffffff;align=center;metaEdit=1;points=[[0.5,0,0],[1,0.25,0],[1,0.5,0],[1,0.75,0],[0.5,1,0],[0,0.75,0],[0,0.5,0],[0,0.25,0]];resizable=0;" parent="1" vertex="1">
            <mxGeometry x="1740" y="-90" width="240" height="160" as="geometry" />
          </mxCell>
        </object>
        <object placeholders="1" c4Name="Mobile App" c4Type="Conteiner" c4Technology="HTML/CSS/JS" c4Description="Interface do cliente para agendamentos, visualização de horários, perfil e histórico de serviços." label="&lt;font style=&quot;font-size: 16px&quot;&gt;&lt;b&gt;%c4Name%&lt;/b&gt;&lt;/font&gt;&lt;div&gt;[%c4Type%:&amp;nbsp;%c4Technology%]&lt;/div&gt;&lt;br&gt;&lt;div&gt;&lt;font style=&quot;font-size: 11px&quot;&gt;&lt;font color=&quot;#E6E6E6&quot;&gt;%c4Description%&lt;/font&gt;&lt;/div&gt;" id="XJv594BOsLoFYUyWrOWW-21">
          <mxCell style="shape=mxgraph.c4.webBrowserContainer2;whiteSpace=wrap;html=1;boundedLbl=1;rounded=0;labelBackgroundColor=none;strokeColor=#118ACD;fillColor=#23A2D9;strokeColor=#118ACD;strokeColor2=#0E7DAD;fontSize=12;fontColor=#ffffff;align=center;metaEdit=1;points=[[0.5,0,0],[1,0.25,0],[1,0.5,0],[1,0.75,0],[0.5,1,0],[0,0.75,0],[0,0.5,0],[0,0.25,0]];resizable=0;" parent="1" vertex="1">
            <mxGeometry x="1210" y="-90" width="240" height="160" as="geometry" />
          </mxCell>
        </object>
        <object placeholders="1" c4Name="Microservice" c4Type="ContainerScopeBoundary" c4Application="Container" label="&lt;font style=&quot;font-size: 16px&quot;&gt;&lt;b&gt;&lt;div style=&quot;text-align: left&quot;&gt;%c4Name%&lt;/div&gt;&lt;/b&gt;&lt;/font&gt;&lt;div style=&quot;text-align: left&quot;&gt;[%c4Application%]&lt;/div&gt;" id="XJv594BOsLoFYUyWrOWW-46">
          <mxCell style="rounded=1;fontSize=11;whiteSpace=wrap;html=1;dashed=1;arcSize=20;fillColor=none;strokeColor=#666666;fontColor=#333333;labelBackgroundColor=none;align=left;verticalAlign=bottom;labelBorderColor=none;spacingTop=0;spacing=10;dashPattern=8 4;metaEdit=1;rotatable=0;perimeter=rectanglePerimeter;noLabel=0;labelPadding=0;allowArrows=0;connectable=0;expand=0;recursiveResize=0;editable=1;pointerEvents=0;absoluteArcSize=1;points=[[0.25,0,0],[0.5,0,0],[0.75,0,0],[1,0.25,0],[1,0.5,0],[1,0.75,0],[0.75,1,0],[0.5,1,0],[0.25,1,0],[0,0.75,0],[0,0.5,0],[0,0.25,0]];" parent="1" vertex="1">
            <mxGeometry x="390" y="150" width="1560" height="760" as="geometry" />
          </mxCell>
        </object>
        <object placeholders="1" c4Name="ORM" c4Type="Componen" c4Technology="JPA" c4Description="Componente que gerencia as conexões e transações com o database" label="&lt;font style=&quot;font-size: 16px&quot;&gt;&lt;b&gt;%c4Name%&lt;/b&gt;&lt;/font&gt;&lt;div&gt;[%c4Type%: %c4Technology%]&lt;/div&gt;&lt;br&gt;&lt;div&gt;&lt;font style=&quot;font-size: 11px&quot;&gt;&lt;font color=&quot;#E6E6E6&quot;&gt;%c4Description%&lt;/font&gt;&lt;/div&gt;" id="BquZNj_TKZy3ks1yoiyU-1">
          <mxCell style="rounded=1;whiteSpace=wrap;html=1;fontSize=11;labelBackgroundColor=none;fillColor=#23A2D9;fontColor=#ffffff;align=center;arcSize=10;strokeColor=#0E7DAD;metaEdit=1;resizable=0;points=[[0.25,0,0],[0.5,0,0],[0.75,0,0],[1,0.25,0],[1,0.5,0],[1,0.75,0],[0.75,1,0],[0.5,1,0],[0.25,1,0],[0,0.75,0],[0,0.5,0],[0,0.25,0]];" parent="1" vertex="1">
            <mxGeometry x="430" y="530" width="240" height="120" as="geometry" />
          </mxCell>
        </object>
        <object placeholders="1" c4Name="Email System" c4Type="Software System" c4Description="Envio de e-mail automatizado por meio do pipefy com auxílio do python" label="&lt;font style=&quot;font-size: 16px&quot;&gt;&lt;b&gt;%c4Name%&lt;/b&gt;&lt;/font&gt;&lt;div&gt;[%c4Type%]&lt;/div&gt;&lt;br&gt;&lt;div&gt;&lt;font style=&quot;font-size: 11px&quot;&gt;&lt;font color=&quot;#cccccc&quot;&gt;%c4Description%&lt;/font&gt;&lt;/div&gt;" id="8P2jfp0nh0-tP0bbPm7f-11">
          <mxCell style="rounded=1;whiteSpace=wrap;html=1;labelBackgroundColor=none;fillColor=#8C8496;fontColor=#ffffff;align=center;arcSize=10;strokeColor=#736782;metaEdit=1;resizable=0;points=[[0.25,0,0],[0.5,0,0],[0.75,0,0],[1,0.25,0],[1,0.5,0],[1,0.75,0],[0.75,1,0],[0.5,1,0],[0.25,1,0],[0,0.75,0],[0,0.5,0],[0,0.25,0]];" parent="1" vertex="1">
            <mxGeometry x="740" y="980" width="240" height="120" as="geometry" />
          </mxCell>
        </object>
        <object placeholders="1" c4Name="Geolocation API" c4Type="Software System" c4Description="Geolocalização para estimatica de tempo e para criação de insights via dashboard" label="&lt;font style=&quot;font-size: 16px&quot;&gt;&lt;b&gt;%c4Name%&lt;/b&gt;&lt;/font&gt;&lt;div&gt;[%c4Type%]&lt;/div&gt;&lt;br&gt;&lt;div&gt;&lt;font style=&quot;font-size: 11px&quot;&gt;&lt;font color=&quot;#cccccc&quot;&gt;%c4Description%&lt;/font&gt;&lt;/div&gt;" id="8P2jfp0nh0-tP0bbPm7f-12">
          <mxCell style="rounded=1;whiteSpace=wrap;html=1;labelBackgroundColor=none;fillColor=#8C8496;fontColor=#ffffff;align=center;arcSize=10;strokeColor=#736782;metaEdit=1;resizable=0;points=[[0.25,0,0],[0.5,0,0],[0.75,0,0],[1,0.25,0],[1,0.5,0],[1,0.75,0],[0.75,1,0],[0.5,1,0],[0.25,1,0],[0,0.75,0],[0,0.5,0],[0,0.25,0]];" parent="1" vertex="1">
            <mxGeometry x="1210" y="980" width="240" height="120" as="geometry" />
          </mxCell>
        </object>
        <object placeholders="1" c4Name="ViaCEP API" c4Type="Software System" c4Description="Validação de endereços a partir da API" label="&lt;font style=&quot;font-size: 16px&quot;&gt;&lt;b&gt;%c4Name%&lt;/b&gt;&lt;/font&gt;&lt;div&gt;[%c4Type%]&lt;/div&gt;&lt;br&gt;&lt;div&gt;&lt;font style=&quot;font-size: 11px&quot;&gt;&lt;font color=&quot;#cccccc&quot;&gt;%c4Description%&lt;/font&gt;&lt;/div&gt;" id="8P2jfp0nh0-tP0bbPm7f-13">
          <mxCell style="rounded=1;whiteSpace=wrap;html=1;labelBackgroundColor=none;fillColor=#8C8496;fontColor=#ffffff;align=center;arcSize=10;strokeColor=#736782;metaEdit=1;resizable=0;points=[[0.25,0,0],[0.5,0,0],[0.75,0,0],[1,0.25,0],[1,0.5,0],[1,0.75,0],[0.75,1,0],[0.5,1,0],[0.25,1,0],[0,0.75,0],[0,0.5,0],[0,0.25,0]];" parent="1" vertex="1">
            <mxGeometry x="1680" y="980" width="240" height="120" as="geometry" />
          </mxCell>
        </object>
        <mxCell id="8P2jfp0nh0-tP0bbPm7f-15" value="" style="endArrow=classic;html=1;rounded=0;exitX=0.5;exitY=1;exitDx=0;exitDy=0;exitPerimeter=0;entryX=0.5;entryY=0;entryDx=0;entryDy=0;entryPerimeter=0;dashed=1;dashPattern=8 8;" parent="1" source="8P2jfp0nh0-tP0bbPm7f-2" target="8P2jfp0nh0-tP0bbPm7f-13" edge="1">
          <mxGeometry width="50" height="50" relative="1" as="geometry">
            <mxPoint x="1100" y="780" as="sourcePoint" />
            <mxPoint x="1150" y="730" as="targetPoint" />
          </mxGeometry>
        </mxCell>
        <mxCell id="8P2jfp0nh0-tP0bbPm7f-16" value="" style="endArrow=classic;html=1;rounded=0;exitX=0.5;exitY=1;exitDx=0;exitDy=0;exitPerimeter=0;entryX=0.5;entryY=0;entryDx=0;entryDy=0;entryPerimeter=0;dashed=1;dashPattern=8 8;" parent="1" source="BquZNj_TKZy3ks1yoiyU-8" target="8P2jfp0nh0-tP0bbPm7f-11" edge="1">
          <mxGeometry width="50" height="50" relative="1" as="geometry">
            <mxPoint x="1800" y="870" as="sourcePoint" />
            <mxPoint x="1710" y="970" as="targetPoint" />
          </mxGeometry>
        </mxCell>
        <mxCell id="8P2jfp0nh0-tP0bbPm7f-17" value="" style="endArrow=classic;html=1;rounded=0;exitX=0.5;exitY=1;exitDx=0;exitDy=0;exitPerimeter=0;dashed=1;dashPattern=8 8;entryX=0.25;entryY=0;entryDx=0;entryDy=0;entryPerimeter=0;" parent="1" source="BquZNj_TKZy3ks1yoiyU-4" target="8P2jfp0nh0-tP0bbPm7f-12" edge="1">
          <mxGeometry width="50" height="50" relative="1" as="geometry">
            <mxPoint x="750" y="810" as="sourcePoint" />
            <mxPoint x="650" y="970" as="targetPoint" />
          </mxGeometry>
        </mxCell>
        <mxCell id="8P2jfp0nh0-tP0bbPm7f-18" value="" style="endArrow=classic;html=1;rounded=0;exitX=0.5;exitY=1;exitDx=0;exitDy=0;exitPerimeter=0;dashed=1;dashPattern=8 8;entryX=0.75;entryY=0;entryDx=0;entryDy=0;entryPerimeter=0;" parent="1" source="BquZNj_TKZy3ks1yoiyU-2" target="8P2jfp0nh0-tP0bbPm7f-12" edge="1">
          <mxGeometry width="50" height="50" relative="1" as="geometry">
            <mxPoint x="1180" y="870" as="sourcePoint" />
            <mxPoint x="1180" y="970" as="targetPoint" />
          </mxGeometry>
        </mxCell>
        <mxCell id="8P2jfp0nh0-tP0bbPm7f-19" value="" style="endArrow=classic;html=1;rounded=0;exitX=0.5;exitY=1;exitDx=0;exitDy=0;exitPerimeter=0;dashed=1;dashPattern=8 8;" parent="1" source="BquZNj_TKZy3ks1yoiyU-1" target="XJv594BOsLoFYUyWrOWW-16" edge="1">
          <mxGeometry width="50" height="50" relative="1" as="geometry">
            <mxPoint x="870" y="870" as="sourcePoint" />
            <mxPoint x="870" y="970" as="targetPoint" />
          </mxGeometry>
        </mxCell>
        <mxCell id="8P2jfp0nh0-tP0bbPm7f-23" value="" style="endArrow=classic;html=1;rounded=0;exitX=0;exitY=0.5;exitDx=0;exitDy=0;exitPerimeter=0;dashed=1;dashPattern=8 8;entryX=1;entryY=0.5;entryDx=0;entryDy=0;entryPerimeter=0;" parent="1" source="8P2jfp0nh0-tP0bbPm7f-7" target="8P2jfp0nh0-tP0bbPm7f-8" edge="1">
          <mxGeometry width="50" height="50" relative="1" as="geometry">
            <mxPoint x="1180" y="870" as="sourcePoint" />
            <mxPoint x="1280" y="970" as="targetPoint" />
          </mxGeometry>
        </mxCell>
        <mxCell id="8P2jfp0nh0-tP0bbPm7f-24" value="" style="endArrow=classic;html=1;rounded=0;exitX=0;exitY=0.5;exitDx=0;exitDy=0;exitPerimeter=0;dashed=1;dashPattern=8 8;entryX=1;entryY=0.5;entryDx=0;entryDy=0;entryPerimeter=0;" parent="1" source="8P2jfp0nh0-tP0bbPm7f-8" target="BquZNj_TKZy3ks1yoiyU-5" edge="1">
          <mxGeometry width="50" height="50" relative="1" as="geometry">
            <mxPoint x="1370" y="570" as="sourcePoint" />
            <mxPoint x="1300" y="570" as="targetPoint" />
          </mxGeometry>
        </mxCell>
        <mxCell id="8P2jfp0nh0-tP0bbPm7f-27" value="" style="endArrow=classic;html=1;rounded=0;exitX=0.5;exitY=1;exitDx=0;exitDy=0;exitPerimeter=0;dashed=1;dashPattern=8 8;entryX=0.5;entryY=0;entryDx=0;entryDy=0;entryPerimeter=0;" parent="1" source="BquZNj_TKZy3ks1yoiyU-5" target="BquZNj_TKZy3ks1yoiyU-4" edge="1">
          <mxGeometry width="50" height="50" relative="1" as="geometry">
            <mxPoint x="1060" y="570" as="sourcePoint" />
            <mxPoint x="990" y="570" as="targetPoint" />
          </mxGeometry>
        </mxCell>
        <mxCell id="8P2jfp0nh0-tP0bbPm7f-28" value="" style="endArrow=classic;html=1;rounded=0;exitX=0;exitY=0.5;exitDx=0;exitDy=0;exitPerimeter=0;dashed=1;dashPattern=8 8;" parent="1" source="BquZNj_TKZy3ks1yoiyU-4" target="BquZNj_TKZy3ks1yoiyU-8" edge="1">
          <mxGeometry width="50" height="50" relative="1" as="geometry">
            <mxPoint x="870" y="630" as="sourcePoint" />
            <mxPoint x="1180" y="750" as="targetPoint" />
          </mxGeometry>
        </mxCell>
        <mxCell id="8P2jfp0nh0-tP0bbPm7f-29" value="" style="endArrow=classic;html=1;rounded=0;exitX=0.5;exitY=1;exitDx=0;exitDy=0;exitPerimeter=0;dashed=1;dashPattern=8 8;entryX=0.75;entryY=0;entryDx=0;entryDy=0;entryPerimeter=0;" parent="1" source="BquZNj_TKZy3ks1yoiyU-7" target="BquZNj_TKZy3ks1yoiyU-4" edge="1">
          <mxGeometry width="50" height="50" relative="1" as="geometry">
            <mxPoint x="870" y="630" as="sourcePoint" />
            <mxPoint x="1180" y="750" as="targetPoint" />
          </mxGeometry>
        </mxCell>
        <mxCell id="8P2jfp0nh0-tP0bbPm7f-31" value="" style="endArrow=classic;html=1;rounded=0;exitX=1;exitY=0.5;exitDx=0;exitDy=0;exitPerimeter=0;dashed=1;dashPattern=8 8;entryX=0;entryY=0.5;entryDx=0;entryDy=0;entryPerimeter=0;" parent="1" source="BquZNj_TKZy3ks1yoiyU-2" target="8P2jfp0nh0-tP0bbPm7f-2" edge="1">
          <mxGeometry width="50" height="50" relative="1" as="geometry">
            <mxPoint x="1240" y="750" as="sourcePoint" />
            <mxPoint x="1800" y="630" as="targetPoint" />
          </mxGeometry>
        </mxCell>
        <mxCell id="8P2jfp0nh0-tP0bbPm7f-32" value="" style="endArrow=classic;html=1;rounded=0;exitX=0;exitY=0.5;exitDx=0;exitDy=0;exitPerimeter=0;dashed=1;dashPattern=8 8;entryX=0.5;entryY=0;entryDx=0;entryDy=0;entryPerimeter=0;" parent="1" source="XJv594BOsLoFYUyWrOWW-21" target="8P2jfp0nh0-tP0bbPm7f-4" edge="1">
          <mxGeometry width="50" height="50" relative="1" as="geometry">
            <mxPoint x="870" y="630" as="sourcePoint" />
            <mxPoint x="1180" y="750" as="targetPoint" />
          </mxGeometry>
        </mxCell>
        <mxCell id="8P2jfp0nh0-tP0bbPm7f-33" value="" style="endArrow=classic;html=1;rounded=0;dashed=1;dashPattern=8 8;entryX=1;entryY=0.5;entryDx=0;entryDy=0;entryPerimeter=0;" parent="1" source="tcR4dVlS6jRZAmqQqYZC-18" target="8P2jfp0nh0-tP0bbPm7f-3" edge="1">
          <mxGeometry width="50" height="50" relative="1" as="geometry">
            <mxPoint x="870" y="90" as="sourcePoint" />
            <mxPoint x="870" y="280" as="targetPoint" />
          </mxGeometry>
        </mxCell>
        <mxCell id="8P2jfp0nh0-tP0bbPm7f-34" value="" style="endArrow=classic;html=1;rounded=0;dashed=1;dashPattern=8 8;entryX=0.25;entryY=0;entryDx=0;entryDy=0;entryPerimeter=0;exitX=1;exitY=0.5;exitDx=0;exitDy=0;exitPerimeter=0;" parent="1" source="XJv594BOsLoFYUyWrOWW-21" target="8P2jfp0nh0-tP0bbPm7f-5" edge="1">
          <mxGeometry width="50" height="50" relative="1" as="geometry">
            <mxPoint x="930" y="110" as="sourcePoint" />
            <mxPoint x="870" y="270" as="targetPoint" />
          </mxGeometry>
        </mxCell>
        <mxCell id="8P2jfp0nh0-tP0bbPm7f-35" value="" style="endArrow=classic;html=1;rounded=0;dashed=1;dashPattern=8 8;entryX=0.75;entryY=0;entryDx=0;entryDy=0;entryPerimeter=0;exitX=0.5;exitY=1;exitDx=0;exitDy=0;exitPerimeter=0;" parent="1" source="XJv594BOsLoFYUyWrOWW-20" target="8P2jfp0nh0-tP0bbPm7f-5" edge="1">
          <mxGeometry width="50" height="50" relative="1" as="geometry">
            <mxPoint x="990" y="50" as="sourcePoint" />
            <mxPoint x="1740" y="270" as="targetPoint" />
          </mxGeometry>
        </mxCell>
        <mxCell id="8P2jfp0nh0-tP0bbPm7f-36" value="" style="endArrow=classic;html=1;rounded=0;dashed=1;dashPattern=8 8;entryX=1;entryY=0.5;entryDx=0;entryDy=0;entryPerimeter=0;exitX=0;exitY=0.5;exitDx=0;exitDy=0;exitPerimeter=0;" parent="1" source="8P2jfp0nh0-tP0bbPm7f-5" target="tcR4dVlS6jRZAmqQqYZC-18" edge="1">
          <mxGeometry width="50" height="50" relative="1" as="geometry">
            <mxPoint x="1660" y="100" as="sourcePoint" />
            <mxPoint x="1800" y="270" as="targetPoint" />
          </mxGeometry>
        </mxCell>
        <mxCell id="8P2jfp0nh0-tP0bbPm7f-37" value="" style="endArrow=classic;html=1;rounded=0;exitX=0.75;exitY=1;exitDx=0;exitDy=0;exitPerimeter=0;dashed=1;dashPattern=8 8;entryX=0.5;entryY=0;entryDx=0;entryDy=0;entryPerimeter=0;" parent="1" source="8P2jfp0nh0-tP0bbPm7f-8" target="BquZNj_TKZy3ks1yoiyU-2" edge="1">
          <mxGeometry width="50" height="50" relative="1" as="geometry">
            <mxPoint x="870" y="90" as="sourcePoint" />
            <mxPoint x="870" y="270" as="targetPoint" />
          </mxGeometry>
        </mxCell>
        <mxCell id="8P2jfp0nh0-tP0bbPm7f-38" value="" style="endArrow=classic;html=1;rounded=0;exitX=0.25;exitY=1;exitDx=0;exitDy=0;exitPerimeter=0;dashed=1;dashPattern=8 8;entryX=0.25;entryY=0;entryDx=0;entryDy=0;entryPerimeter=0;" parent="1" source="8P2jfp0nh0-tP0bbPm7f-4" target="BquZNj_TKZy3ks1yoiyU-1" edge="1">
          <mxGeometry width="50" height="50" relative="1" as="geometry">
            <mxPoint x="870" y="390" as="sourcePoint" />
            <mxPoint x="1430" y="750" as="targetPoint" />
          </mxGeometry>
        </mxCell>
        <mxCell id="8P2jfp0nh0-tP0bbPm7f-39" value="" style="endArrow=classic;html=1;rounded=0;dashed=1;dashPattern=8 8;entryX=0.5;entryY=0;entryDx=0;entryDy=0;entryPerimeter=0;exitX=0.5;exitY=1;exitDx=0;exitDy=0;exitPerimeter=0;" parent="1" source="tcR4dVlS6jRZAmqQqYZC-18" target="8P2jfp0nh0-tP0bbPm7f-7" edge="1">
          <mxGeometry width="50" height="50" relative="1" as="geometry">
            <mxPoint x="1660" y="100" as="sourcePoint" />
            <mxPoint x="1800" y="270" as="targetPoint" />
          </mxGeometry>
        </mxCell>
        <mxCell id="8P2jfp0nh0-tP0bbPm7f-40" value="" style="endArrow=classic;html=1;rounded=0;dashed=1;dashPattern=8 8;entryX=0.5;entryY=0;entryDx=0;entryDy=0;entryPerimeter=0;exitX=0.5;exitY=1;exitDx=0;exitDy=0;exitPerimeter=0;" parent="1" source="tcR4dVlS6jRZAmqQqYZC-18" target="8P2jfp0nh0-tP0bbPm7f-2" edge="1">
          <mxGeometry width="50" height="50" relative="1" as="geometry">
            <mxPoint x="1490" y="390" as="sourcePoint" />
            <mxPoint x="1490" y="510" as="targetPoint" />
          </mxGeometry>
        </mxCell>
        <mxCell id="8P2jfp0nh0-tP0bbPm7f-42" value="" style="endArrow=classic;html=1;rounded=0;dashed=1;dashPattern=8 8;entryX=0.5;entryY=0;entryDx=0;entryDy=0;entryPerimeter=0;exitX=0.75;exitY=1;exitDx=0;exitDy=0;exitPerimeter=0;" parent="1" source="tcR4dVlS6jRZAmqQqYZC-18" target="BquZNj_TKZy3ks1yoiyU-7" edge="1">
          <mxGeometry width="50" height="50" relative="1" as="geometry">
            <mxPoint x="1490" y="390" as="sourcePoint" />
            <mxPoint x="1800" y="750" as="targetPoint" />
          </mxGeometry>
        </mxCell>
        <mxCell id="8P2jfp0nh0-tP0bbPm7f-43" value="" style="endArrow=classic;html=1;rounded=0;exitX=0;exitY=0.5;exitDx=0;exitDy=0;exitPerimeter=0;dashed=1;dashPattern=8 8;" parent="1" source="BquZNj_TKZy3ks1yoiyU-8" target="BquZNj_TKZy3ks1yoiyU-1" edge="1">
          <mxGeometry width="50" height="50" relative="1" as="geometry">
            <mxPoint x="880" y="870" as="sourcePoint" />
            <mxPoint x="870" y="970" as="targetPoint" />
          </mxGeometry>
        </mxCell>
        <mxCell id="8P2jfp0nh0-tP0bbPm7f-44" value="" style="endArrow=classic;html=1;rounded=0;exitX=0.5;exitY=1;exitDx=0;exitDy=0;exitPerimeter=0;dashed=1;dashPattern=8 8;entryX=1;entryY=0.5;entryDx=0;entryDy=0;entryPerimeter=0;" parent="1" source="BquZNj_TKZy3ks1yoiyU-5" target="BquZNj_TKZy3ks1yoiyU-1" edge="1">
          <mxGeometry width="50" height="50" relative="1" as="geometry">
            <mxPoint x="760" y="810" as="sourcePoint" />
            <mxPoint x="611" y="635" as="targetPoint" />
          </mxGeometry>
        </mxCell>
        <mxCell id="8P2jfp0nh0-tP0bbPm7f-45" value="" style="endArrow=classic;html=1;rounded=0;exitX=0.5;exitY=1;exitDx=0;exitDy=0;exitPerimeter=0;dashed=1;dashPattern=8 8;entryX=0.25;entryY=0;entryDx=0;entryDy=0;entryPerimeter=0;" parent="1" source="8P2jfp0nh0-tP0bbPm7f-3" target="BquZNj_TKZy3ks1yoiyU-1" edge="1">
          <mxGeometry width="50" height="50" relative="1" as="geometry">
            <mxPoint x="810" y="390" as="sourcePoint" />
            <mxPoint x="579" y="519" as="targetPoint" />
          </mxGeometry>
        </mxCell>
        <mxCell id="8P2jfp0nh0-tP0bbPm7f-46" value="" style="endArrow=classic;html=1;rounded=0;exitX=0.5;exitY=1;exitDx=0;exitDy=0;exitPerimeter=0;dashed=1;dashPattern=8 8;entryX=0.5;entryY=0;entryDx=0;entryDy=0;entryPerimeter=0;" parent="1" source="tcR4dVlS6jRZAmqQqYZC-18" target="BquZNj_TKZy3ks1yoiyU-1" edge="1">
          <mxGeometry width="50" height="50" relative="1" as="geometry">
            <mxPoint x="1180" y="390" as="sourcePoint" />
            <mxPoint x="580" y="520" as="targetPoint" />
          </mxGeometry>
        </mxCell>
        <mxCell id="8P2jfp0nh0-tP0bbPm7f-47" value="" style="endArrow=classic;html=1;rounded=0;exitX=0.5;exitY=1;exitDx=0;exitDy=0;exitPerimeter=0;dashed=1;dashPattern=8 8;entryX=0.75;entryY=0;entryDx=0;entryDy=0;entryPerimeter=0;" parent="1" source="8P2jfp0nh0-tP0bbPm7f-5" target="BquZNj_TKZy3ks1yoiyU-1" edge="1">
          <mxGeometry width="50" height="50" relative="1" as="geometry">
            <mxPoint x="1490" y="390" as="sourcePoint" />
            <mxPoint x="630" y="515" as="targetPoint" />
          </mxGeometry>
        </mxCell>
        <mxCell id="8P2jfp0nh0-tP0bbPm7f-48" value="" style="endArrow=classic;html=1;rounded=0;exitX=0.5;exitY=1;exitDx=0;exitDy=0;exitPerimeter=0;dashed=1;dashPattern=8 8;entryX=1;entryY=0.5;entryDx=0;entryDy=0;entryPerimeter=0;" parent="1" source="8P2jfp0nh0-tP0bbPm7f-8" target="BquZNj_TKZy3ks1yoiyU-1" edge="1">
          <mxGeometry width="50" height="50" relative="1" as="geometry">
            <mxPoint x="1065" y="500" as="sourcePoint" />
            <mxPoint x="1005" y="500" as="targetPoint" />
          </mxGeometry>
        </mxCell>
        <mxCell id="8P2jfp0nh0-tP0bbPm7f-49" value="" style="endArrow=classic;html=1;rounded=0;exitX=0.5;exitY=1;exitDx=0;exitDy=0;exitPerimeter=0;dashed=1;dashPattern=8 8;entryX=1;entryY=0.75;entryDx=0;entryDy=0;entryPerimeter=0;" parent="1" source="8P2jfp0nh0-tP0bbPm7f-7" target="BquZNj_TKZy3ks1yoiyU-1" edge="1">
          <mxGeometry width="50" height="50" relative="1" as="geometry">
            <mxPoint x="1185" y="560" as="sourcePoint" />
            <mxPoint x="680" y="575" as="targetPoint" />
          </mxGeometry>
        </mxCell>
        <mxCell id="8P2jfp0nh0-tP0bbPm7f-50" value="" style="endArrow=classic;html=1;rounded=0;exitX=0.25;exitY=1;exitDx=0;exitDy=0;exitPerimeter=0;dashed=1;dashPattern=8 8;entryX=1;entryY=0.75;entryDx=0;entryDy=0;entryPerimeter=0;" parent="1" source="BquZNj_TKZy3ks1yoiyU-7" target="BquZNj_TKZy3ks1yoiyU-1" edge="1">
          <mxGeometry width="50" height="50" relative="1" as="geometry">
            <mxPoint x="1495" y="560" as="sourcePoint" />
            <mxPoint x="680" y="605" as="targetPoint" />
          </mxGeometry>
        </mxCell>
        <mxCell id="8P2jfp0nh0-tP0bbPm7f-51" value="" style="endArrow=classic;html=1;rounded=0;exitX=0.25;exitY=0;exitDx=0;exitDy=0;exitPerimeter=0;dashed=1;dashPattern=8 8;entryX=0.75;entryY=1;entryDx=0;entryDy=0;entryPerimeter=0;" parent="1" source="8P2jfp0nh0-tP0bbPm7f-2" target="BquZNj_TKZy3ks1yoiyU-1" edge="1">
          <mxGeometry width="50" height="50" relative="1" as="geometry">
            <mxPoint x="760" y="810" as="sourcePoint" />
            <mxPoint x="611" y="635" as="targetPoint" />
          </mxGeometry>
        </mxCell>
        <mxCell id="8P2jfp0nh0-tP0bbPm7f-52" value="" style="endArrow=classic;html=1;rounded=0;exitX=0.25;exitY=0;exitDx=0;exitDy=0;exitPerimeter=0;dashed=1;dashPattern=8 8;entryX=0.75;entryY=1;entryDx=0;entryDy=0;entryPerimeter=0;" parent="1" source="BquZNj_TKZy3ks1yoiyU-2" target="BquZNj_TKZy3ks1yoiyU-1" edge="1">
          <mxGeometry width="50" height="50" relative="1" as="geometry">
            <mxPoint x="1740" y="750" as="sourcePoint" />
            <mxPoint x="620" y="635" as="targetPoint" />
          </mxGeometry>
        </mxCell>
        <mxCell id="8P2jfp0nh0-tP0bbPm7f-53" value="" style="endArrow=classic;html=1;rounded=0;exitX=0.25;exitY=0;exitDx=0;exitDy=0;exitPerimeter=0;dashed=1;dashPattern=8 8;entryX=0.75;entryY=1;entryDx=0;entryDy=0;entryPerimeter=0;" parent="1" source="BquZNj_TKZy3ks1yoiyU-4" target="BquZNj_TKZy3ks1yoiyU-1" edge="1">
          <mxGeometry width="50" height="50" relative="1" as="geometry">
            <mxPoint x="1430" y="750" as="sourcePoint" />
            <mxPoint x="630" y="645" as="targetPoint" />
          </mxGeometry>
        </mxCell>
        <object placeholders="1" c4Name="Agendamento Controller" c4Type="Component" c4Technology="Spring MVC Rest Controller" c4Description="Controle de criação, buscas, listagens, arquivamentos, bloqueios e demais dados que compõem o agendamento" label="&lt;font style=&quot;font-size: 16px&quot;&gt;&lt;b&gt;%c4Name%&lt;/b&gt;&lt;/font&gt;&lt;div&gt;[%c4Type%: %c4Technology%]&lt;/div&gt;&lt;br&gt;&lt;div&gt;&lt;font style=&quot;font-size: 11px&quot;&gt;&lt;font color=&quot;#E6E6E6&quot;&gt;%c4Description%&lt;/font&gt;&lt;/div&gt;" id="BquZNj_TKZy3ks1yoiyU-4">
          <mxCell style="rounded=1;whiteSpace=wrap;html=1;fontSize=11;labelBackgroundColor=none;fillColor=#23A2D9;fontColor=#ffffff;align=center;arcSize=10;strokeColor=#0E7DAD;metaEdit=1;resizable=0;points=[[0.25,0,0],[0.5,0,0],[0.75,0,0],[1,0.25,0],[1,0.5,0],[1,0.75,0],[0.75,1,0],[0.5,1,0],[0.25,1,0],[0,0.75,0],[0,0.5,0],[0,0.25,0]];" parent="1" vertex="1">
            <mxGeometry x="1050" y="740" width="240" height="120" as="geometry" />
          </mxCell>
        </object>
        <object placeholders="1" c4Name="FichaAnamnese Controller" c4Type="Component" c4Technology="Spring MVC Rest Controller" c4Description="Controle de cadastro e listagem das fichas de anamnese" label="&lt;font style=&quot;font-size: 16px&quot;&gt;&lt;b&gt;%c4Name%&lt;/b&gt;&lt;/font&gt;&lt;div&gt;[%c4Type%: %c4Technology%]&lt;/div&gt;&lt;br&gt;&lt;div&gt;&lt;font style=&quot;font-size: 11px&quot;&gt;&lt;font color=&quot;#E6E6E6&quot;&gt;%c4Description%&lt;/font&gt;&lt;/div&gt;" id="BquZNj_TKZy3ks1yoiyU-5">
          <mxCell style="rounded=1;whiteSpace=wrap;html=1;fontSize=11;labelBackgroundColor=none;fillColor=#23A2D9;fontColor=#ffffff;align=center;arcSize=10;strokeColor=#0E7DAD;metaEdit=1;resizable=0;points=[[0.25,0,0],[0.5,0,0],[0.75,0,0],[1,0.25,0],[1,0.5,0],[1,0.75,0],[0.75,1,0],[0.5,1,0],[0.25,1,0],[0,0.75,0],[0,0.5,0],[0,0.25,0]];" parent="1" vertex="1">
            <mxGeometry x="740" y="430" width="240" height="120" as="geometry" />
          </mxCell>
        </object>
        <object placeholders="1" c4Name="Feedback Controller" c4Type="Component" c4Technology="Spring MVC Rest Controller" c4Description="Controle de criação, listagem, buscas, atualizações, deleções e dados que compõem feedbacks" label="&lt;font style=&quot;font-size: 16px&quot;&gt;&lt;b&gt;%c4Name%&lt;/b&gt;&lt;/font&gt;&lt;div&gt;[%c4Type%: %c4Technology%]&lt;/div&gt;&lt;br&gt;&lt;div&gt;&lt;font style=&quot;font-size: 11px&quot;&gt;&lt;font color=&quot;#E6E6E6&quot;&gt;%c4Description%&lt;/font&gt;&lt;/div&gt;" id="BquZNj_TKZy3ks1yoiyU-8">
          <mxCell style="rounded=1;whiteSpace=wrap;html=1;fontSize=11;labelBackgroundColor=none;fillColor=#23A2D9;fontColor=#ffffff;align=center;arcSize=10;strokeColor=#0E7DAD;metaEdit=1;resizable=0;points=[[0.25,0,0],[0.5,0,0],[0.75,0,0],[1,0.25,0],[1,0.5,0],[1,0.75,0],[0.75,1,0],[0.5,1,0],[0.25,1,0],[0,0.75,0],[0,0.5,0],[0,0.25,0]];" parent="1" vertex="1">
            <mxGeometry x="740" y="740" width="240" height="120" as="geometry" />
          </mxCell>
        </object>
        <object placeholders="1" c4Name="Usuario Controller" c4Type="Component" c4Technology="Spring MVC Rest Controller" c4Description="Controle de login, cadastro e dados que compõem o usuário" label="&lt;font style=&quot;font-size: 16px&quot;&gt;&lt;b&gt;%c4Name%&lt;/b&gt;&lt;/font&gt;&lt;div&gt;[%c4Type%: %c4Technology%]&lt;/div&gt;&lt;br&gt;&lt;div&gt;&lt;font style=&quot;font-size: 11px&quot;&gt;&lt;font color=&quot;#E6E6E6&quot;&gt;%c4Description%&lt;/font&gt;&lt;/div&gt;" id="BquZNj_TKZy3ks1yoiyU-2">
          <mxCell style="rounded=1;whiteSpace=wrap;html=1;fontSize=11;labelBackgroundColor=none;fillColor=#23A2D9;fontColor=#ffffff;align=center;arcSize=10;strokeColor=#0E7DAD;metaEdit=1;resizable=0;points=[[0.25,0,0],[0.5,0,0],[0.75,0,0],[1,0.25,0],[1,0.5,0],[1,0.75,0],[0.75,1,0],[0.5,1,0],[0.25,1,0],[0,0.75,0],[0,0.5,0],[0,0.25,0]];" parent="1" vertex="1">
            <mxGeometry x="1365" y="740" width="240" height="120" as="geometry" />
          </mxCell>
        </object>
        <object placeholders="1" c4Name="Empresa Controller" c4Type="Component" c4Technology="Spring MVC Rest Controller" c4Description="Controle de cadastro, listagem, busca e dados que compõem e empresa" label="&lt;font style=&quot;font-size: 16px&quot;&gt;&lt;b&gt;%c4Name%&lt;/b&gt;&lt;/font&gt;&lt;div&gt;[%c4Type%: %c4Technology%]&lt;/div&gt;&lt;br&gt;&lt;div&gt;&lt;font style=&quot;font-size: 11px&quot;&gt;&lt;font color=&quot;#E6E6E6&quot;&gt;%c4Description%&lt;/font&gt;&lt;/div&gt;" id="tcR4dVlS6jRZAmqQqYZC-18">
          <mxCell style="rounded=1;whiteSpace=wrap;html=1;fontSize=11;labelBackgroundColor=none;fillColor=#23A2D9;fontColor=#ffffff;align=center;arcSize=10;strokeColor=#0E7DAD;metaEdit=1;resizable=0;points=[[0.25,0,0],[0.5,0,0],[0.75,0,0],[1,0.25,0],[1,0.5,0],[1,0.75,0],[0.75,1,0],[0.5,1,0],[0.25,1,0],[0,0.75,0],[0,0.5,0],[0,0.25,0]];" parent="1" vertex="1">
            <mxGeometry x="1365" y="210" width="240" height="120" as="geometry" />
          </mxCell>
        </object>
        <object placeholders="1" c4Name="Endereço Controller" c4Type="Component" c4Technology="Spring MVC Rest Controller" c4Description="Controle de criação, buscas, listagens e demais dados que compõem o endereço" label="&lt;font style=&quot;font-size: 16px&quot;&gt;&lt;b&gt;%c4Name%&lt;/b&gt;&lt;/font&gt;&lt;div&gt;[%c4Type%: %c4Technology%]&lt;/div&gt;&lt;br&gt;&lt;div&gt;&lt;font style=&quot;font-size: 11px&quot;&gt;&lt;font color=&quot;#E6E6E6&quot;&gt;%c4Description%&lt;/font&gt;&lt;/div&gt;" id="8P2jfp0nh0-tP0bbPm7f-2">
          <mxCell style="rounded=1;whiteSpace=wrap;html=1;fontSize=11;labelBackgroundColor=none;fillColor=#23A2D9;fontColor=#ffffff;align=center;arcSize=10;strokeColor=#0E7DAD;metaEdit=1;resizable=0;points=[[0.25,0,0],[0.5,0,0],[0.75,0,0],[1,0.25,0],[1,0.5,0],[1,0.75,0],[0.75,1,0],[0.5,1,0],[0.25,1,0],[0,0.75,0],[0,0.5,0],[0,0.25,0]];" parent="1" vertex="1">
            <mxGeometry x="1680" y="740" width="240" height="120" as="geometry" />
          </mxCell>
        </object>
        <object placeholders="1" c4Name="HorarioFuncionamento Controller" c4Type="Component" c4Technology="Spring MVC Rest Controller" c4Description="Controle de criação e deleção de horários de funcionamento" label="&lt;font style=&quot;font-size: 16px&quot;&gt;&lt;b&gt;%c4Name%&lt;/b&gt;&lt;/font&gt;&lt;div&gt;[%c4Type%: %c4Technology%]&lt;/div&gt;&lt;br&gt;&lt;div&gt;&lt;font style=&quot;font-size: 11px&quot;&gt;&lt;font color=&quot;#E6E6E6&quot;&gt;%c4Description%&lt;/font&gt;&lt;/div&gt;" id="8P2jfp0nh0-tP0bbPm7f-3">
          <mxCell style="rounded=1;whiteSpace=wrap;html=1;fontSize=11;labelBackgroundColor=none;fillColor=#23A2D9;fontColor=#ffffff;align=center;arcSize=10;strokeColor=#0E7DAD;metaEdit=1;resizable=0;points=[[0.25,0,0],[0.5,0,0],[0.75,0,0],[1,0.25,0],[1,0.5,0],[1,0.75,0],[0.75,1,0],[0.5,1,0],[0.25,1,0],[0,0.75,0],[0,0.5,0],[0,0.25,0]];" parent="1" vertex="1">
            <mxGeometry x="1050" y="210" width="240" height="120" as="geometry" />
          </mxCell>
        </object>
        <object placeholders="1" c4Name="Mensagem Controller" c4Type="Component" c4Technology="Spring MVC Rest Controller" c4Description="Controle de criação, listagem, busca e deleção de mensagens " label="&lt;font style=&quot;font-size: 16px&quot;&gt;&lt;b&gt;%c4Name%&lt;/b&gt;&lt;/font&gt;&lt;div&gt;[%c4Type%: %c4Technology%]&lt;/div&gt;&lt;br&gt;&lt;div&gt;&lt;font style=&quot;font-size: 11px&quot;&gt;&lt;font color=&quot;#E6E6E6&quot;&gt;%c4Description%&lt;/font&gt;&lt;/div&gt;" id="8P2jfp0nh0-tP0bbPm7f-4">
          <mxCell style="rounded=1;whiteSpace=wrap;html=1;fontSize=11;labelBackgroundColor=none;fillColor=#23A2D9;fontColor=#ffffff;align=center;arcSize=10;strokeColor=#0E7DAD;metaEdit=1;resizable=0;points=[[0.25,0,0],[0.5,0,0],[0.75,0,0],[1,0.25,0],[1,0.5,0],[1,0.75,0],[0.75,1,0],[0.5,1,0],[0.25,1,0],[0,0.75,0],[0,0.5,0],[0,0.25,0]];" parent="1" vertex="1">
            <mxGeometry x="740" y="210" width="240" height="120" as="geometry" />
          </mxCell>
        </object>
        <object placeholders="1" c4Name="NivelAcesso Controller" c4Type="Component" c4Technology="Spring MVC Rest Controller" c4Description="Controle de criação, listagem, busca, deleção e demais dados envolvendo o nível de acesso" label="&lt;font style=&quot;font-size: 16px&quot;&gt;&lt;b&gt;%c4Name%&lt;/b&gt;&lt;/font&gt;&lt;div&gt;[%c4Type%: %c4Technology%]&lt;/div&gt;&lt;br&gt;&lt;div&gt;&lt;font style=&quot;font-size: 11px&quot;&gt;&lt;font color=&quot;#E6E6E6&quot;&gt;%c4Description%&lt;/font&gt;&lt;/div&gt;" id="8P2jfp0nh0-tP0bbPm7f-5">
          <mxCell style="rounded=1;whiteSpace=wrap;html=1;fontSize=11;labelBackgroundColor=none;fillColor=#23A2D9;fontColor=#ffffff;align=center;arcSize=10;strokeColor=#0E7DAD;metaEdit=1;resizable=0;points=[[0.25,0,0],[0.5,0,0],[0.75,0,0],[1,0.25,0],[1,0.5,0],[1,0.75,0],[0.75,1,0],[0.5,1,0],[0.25,1,0],[0,0.75,0],[0,0.5,0],[0,0.25,0]];" parent="1" vertex="1">
            <mxGeometry x="1680" y="210" width="240" height="120" as="geometry" />
          </mxCell>
        </object>
        <object placeholders="1" c4Name="Pergunta Controller" c4Type="Component" c4Technology="Spring MVC Rest Controller" c4Description="Controle de criação, buscas, listagens, arquivamentos, e demais dados que compõem as perguntas da ficha anamnese" label="&lt;font style=&quot;font-size: 16px&quot;&gt;&lt;b&gt;%c4Name%&lt;/b&gt;&lt;/font&gt;&lt;div&gt;[%c4Type%: %c4Technology%]&lt;/div&gt;&lt;br&gt;&lt;div&gt;&lt;font style=&quot;font-size: 11px&quot;&gt;&lt;font color=&quot;#E6E6E6&quot;&gt;%c4Description%&lt;/font&gt;&lt;/div&gt;" id="8P2jfp0nh0-tP0bbPm7f-7">
          <mxCell style="rounded=1;whiteSpace=wrap;html=1;fontSize=11;labelBackgroundColor=none;fillColor=#23A2D9;fontColor=#ffffff;align=center;arcSize=10;strokeColor=#0E7DAD;metaEdit=1;resizable=0;points=[[0.25,0,0],[0.5,0,0],[0.75,0,0],[1,0.25,0],[1,0.5,0],[1,0.75,0],[0.75,1,0],[0.5,1,0],[0.25,1,0],[0,0.75,0],[0,0.5,0],[0,0.25,0]];" parent="1" vertex="1">
            <mxGeometry x="1365" y="430" width="240" height="120" as="geometry" />
          </mxCell>
        </object>
        <object placeholders="1" c4Name="Procedimento Controller" c4Type="Component" c4Technology="Spring MVC Rest Controller" c4Description="Controle de cadastro, listagem, buscas, atualizações, deleções e dados que compõem o usuário" label="&lt;font style=&quot;font-size: 16px&quot;&gt;&lt;b&gt;%c4Name%&lt;/b&gt;&lt;/font&gt;&lt;div&gt;[%c4Type%: %c4Technology%]&lt;/div&gt;&lt;br&gt;&lt;div&gt;&lt;font style=&quot;font-size: 11px&quot;&gt;&lt;font color=&quot;#E6E6E6&quot;&gt;%c4Description%&lt;/font&gt;&lt;/div&gt;" id="BquZNj_TKZy3ks1yoiyU-7">
          <mxCell style="rounded=1;whiteSpace=wrap;html=1;fontSize=11;labelBackgroundColor=none;fillColor=#23A2D9;fontColor=#ffffff;align=center;arcSize=10;strokeColor=#0E7DAD;metaEdit=1;resizable=0;points=[[0.25,0,0],[0.5,0,0],[0.75,0,0],[1,0.25,0],[1,0.5,0],[1,0.75,0],[0.75,1,0],[0.5,1,0],[0.25,1,0],[0,0.75,0],[0,0.5,0],[0,0.25,0]];" parent="1" vertex="1">
            <mxGeometry x="1680" y="430" width="240" height="120" as="geometry" />
          </mxCell>
        </object>
        <mxCell id="bsXtaBo1n0VCc4KjHtzw-1" value="" style="endArrow=classic;html=1;rounded=0;dashed=1;dashPattern=8 8;entryX=0;entryY=0.5;entryDx=0;entryDy=0;entryPerimeter=0;exitX=1;exitY=0.5;exitDx=0;exitDy=0;exitPerimeter=0;" edge="1" parent="1" source="BquZNj_TKZy3ks1yoiyU-4" target="BquZNj_TKZy3ks1yoiyU-2">
          <mxGeometry width="50" height="50" relative="1" as="geometry">
            <mxPoint x="1290" y="820" as="sourcePoint" />
            <mxPoint x="795" y="760" as="targetPoint" />
          </mxGeometry>
        </mxCell>
        <mxCell id="bsXtaBo1n0VCc4KjHtzw-2" value="" style="endArrow=classic;html=1;rounded=0;exitX=0.75;exitY=1;exitDx=0;exitDy=0;exitPerimeter=0;dashed=1;dashPattern=8 8;entryX=0.5;entryY=0;entryDx=0;entryDy=0;entryPerimeter=0;" edge="1" parent="1" source="8P2jfp0nh0-tP0bbPm7f-4" target="8P2jfp0nh0-tP0bbPm7f-8">
          <mxGeometry width="50" height="50" relative="1" as="geometry">
            <mxPoint x="925" y="330" as="sourcePoint" />
            <mxPoint x="1485" y="740" as="targetPoint" />
          </mxGeometry>
        </mxCell>
        <object placeholders="1" c4Name="Resposta Controller" c4Type="Component" c4Technology="Spring MVC Rest Controller" c4Description="Controle de criação, buscas, listagens, arquivamentos, e demais dados que compõem as respostas da ficha anamnese" label="&lt;font style=&quot;font-size: 16px&quot;&gt;&lt;b&gt;%c4Name%&lt;/b&gt;&lt;/font&gt;&lt;div&gt;[%c4Type%: %c4Technology%]&lt;/div&gt;&lt;br&gt;&lt;div&gt;&lt;font style=&quot;font-size: 11px&quot;&gt;&lt;font color=&quot;#E6E6E6&quot;&gt;%c4Description%&lt;/font&gt;&lt;/div&gt;" id="8P2jfp0nh0-tP0bbPm7f-8">
          <mxCell style="rounded=1;whiteSpace=wrap;html=1;fontSize=11;labelBackgroundColor=none;fillColor=#23A2D9;fontColor=#ffffff;align=center;arcSize=10;strokeColor=#0E7DAD;metaEdit=1;resizable=0;points=[[0.25,0,0],[0.5,0,0],[0.75,0,0],[1,0.25,0],[1,0.5,0],[1,0.75,0],[0.75,1,0],[0.5,1,0],[0.25,1,0],[0,0.75,0],[0,0.5,0],[0,0.25,0]];" parent="1" vertex="1">
            <mxGeometry x="1050" y="430" width="240" height="120" as="geometry" />
          </mxCell>
        </object>
      </root>
    </mxGraphModel>
  </diagram>
</mxfile>
